
<?xml version="1.0" standalone="yes"?>

<svg version="1.1" viewBox="0.0 0.0 960.0 720.0" fill="none" stroke="none" stroke-linecap="square" stroke-miterlimit="10" xmlns="http://www.w3.org/2000/svg" xmlns:xlink="http://www.w3.org/1999/xlink"><clipPath id="p.0"><path d="m0 0l960.0 0l0 720.0l-960.0 0l0 -720.0z" clip-rule="nonzero"></path></clipPath><g clip-path="url(#p.0)"><path fill="#000000" fill-opacity="0.0" d="m0 0l960.0 0l0 720.0l-960.0 0z" fill-rule="nonzero"></path><path fill="#33b9f3" d="m268.48114 141.12195l0 56.375153l-46.965668 0l0 -56.375153zm-63.259872 -17.018913l0 102.11349l16.294205 0l0 -11.7005005l46.965668 0l0 8.50946l16.29422 0l0 -98.92245zm-85.305 -21.273643c-6.389885 19.8554 -16.294212 37.583435 -29.712975 53.184113l13.418762 11.7005005c7.0288773 -7.091217 12.779778 -14.536987 17.2527 -22.337326l17.252686 0l-1.9169617 23.401016l-50.7996 0l0 17.018906l48.882637 0c-3.1949463 17.728043 -20.44764 31.555908 -51.758087 41.483612l6.709381 20.20996c26.19854 -7.8003387 44.729202 -20.919083 55.59201 -39.356247c16.613708 9.218582 30.351974 18.082596 41.214783 26.592056l9.584824 -19.146286c-12.77977 -8.509445 -27.796005 -15.955231 -45.048706 -22.337326l1.9169769 -7.4457703l44.09021 0l0 -17.018906l-43.13173 0l1.9169617 -23.401016l31.629944 0l0 -17.018906l-58.46747 0l6.709381 -15.955238c4.4729156 -0.7091217 5.4313965 -2.481926 2.8754425 -5.318413l-18.211174 -4.25473zm120.76887 152.10655l0 23.401001l-94.88982 0l0 -23.401001zm0 40.41992l0 23.401001l-94.88982 0l0 -23.401001zm-114.05949 -57.438843l0 110.622955l19.16967 0l0 -12.764191l94.88982 0l0 7.4457703l19.169662 0l0 -105.304535z" fill-rule="evenodd"></path><path fill="#33b9f3" d="m453.46838 124.103035l0 26.592064l-32.58844 0l0 -26.592064zm49.841095 0l0 26.592064l-32.58841 0l0 -26.592064zm-146.64789 -17.018913c-4.472931 3.5456085 -10.223816 7.8003387 -17.252716 12.764191c7.0289 7.800331 14.696747 21.273636 23.003601 40.41992c6.3898926 -5.6729736 12.460297 -9.927704 18.211182 -12.764191c-5.111908 -9.927704 -13.099274 -23.401009 -23.962067 -40.41992zm96.80679 60.629883l0 27.655731l-32.58844 0l0 -27.655731zm49.841095 0l0 27.655731l-32.58841 0l0 -27.655731zm-184.98721 18.082596l0 20.20996c9.584839 -0.7091217 18.53067 -1.0636749 26.837524 -1.0636749l7.6678467 0l0 102.11348c0 6.3821106 -2.8754272 12.764191 -8.626343 19.14627c6.3898926 4.25473 12.140808 8.50946 17.252716 12.764191c5.750885 -9.927704 11.1822815 -18.968994 16.29419 -27.123901c5.111908 -8.154877 11.182312 -16.841614 18.211182 -26.060211c-5.111908 -4.25473 -9.584808 -9.927704 -13.418762 -17.01889c-4.4729004 7.0911865 -8.626343 13.82785 -12.460266 20.20996l0 -59.566208c0 -14.182434 0.31948853 -28.364868 0.9584656 -42.547287l-25.879028 0c-8.945831 0 -17.891693 -0.35456848 -26.837524 -1.0636902zm83.38803 -78.71248c0.63897705 13.473312 0.9584656 30.846786 0.9584656 52.120422c0 20.56453 -0.31948853 38.647125 -0.9584656 54.247803l51.758087 0l0 21.273636c-37.06137 0 -59.425964 -0.35456848 -67.09381 -1.0636749l0 19.14627c8.306824 -0.7091217 27.476501 -1.0636749 57.508972 -1.0636749c-6.3898926 13.473297 -14.05777 25.705658 -23.003601 36.69702c-8.945831 10.991394 -22.045105 21.450928 -39.29779 31.378632c5.750885 5.6729736 10.223816 11.7005005 13.418762 18.08258c16.613708 -12.055054 28.914215 -22.86914 36.90158 -32.44229c7.9873657 -9.573151 15.175995 -19.678131 21.565887 -30.314941l0 0c0 36.87433 -0.31951904 63.46637 -0.9584961 79.77615l19.169647 0c-0.63897705 -15.6006775 -0.9584656 -43.25641 -0.9584656 -82.96719l0 0c6.3898926 11.345947 15.016235 22.691895 25.879028 34.03781c10.8628235 11.345947 24.601074 20.919098 41.214783 28.719421c2.5559692 -8.50946 6.0703735 -15.955231 10.543335 -22.33731c-12.779785 -4.963867 -25.240051 -12.409637 -37.38086 -22.337341c-12.140778 -9.927704 -23.32309 -22.691864 -33.546906 -38.29254c33.866394 0 54.953033 0.35455322 63.259857 1.0636749l0 -19.14627c-7.6678467 0.70910645 -30.990936 1.0636749 -69.96924 1.0636749l0 -21.273636l51.758057 0c-0.63897705 -9.927704 -0.95843506 -26.946625 -0.95843506 -51.056747c0 -24.110138 0.319458 -42.547287 0.95843506 -55.311478z" fill-rule="evenodd"></path><path fill="#33b9f3" d="m645.165 159.20454c-1.2779541 17.728043 -3.1949463 35.101517 -5.7509155 52.120438c-7.0288696 -10.636826 -15.016235 -21.628204 -23.962036 -32.97415l-9.584839 10.636826c10.223816 14.891541 20.128113 30.13765 29.712952 45.738327c-7.6678467 21.982758 -18.850159 42.901855 -33.546875 62.757233l10.543274 15.955261c15.335754 -19.146301 26.837524 -39.710815 34.505432 -61.693573c7.0288696 11.345947 14.057739 22.691895 21.086609 34.03781l9.584839 -18.08258c-7.6678467 -12.764191 -15.974731 -25.882935 -24.920593 -39.356247c3.1949463 -21.982758 5.7509155 -41.483597 7.6679077 -58.502518c5.7508545 -2.127365 6.0703735 -4.25473 0.95843506 -6.3820953l-16.29419 -4.25473zm72.84473 -1.0636749c-1.2780151 18.43715 -3.8339233 38.292557 -7.6678467 59.566193c-9.584839 -14.182419 -18.211182 -26.237488 -25.87909 -36.16519l-9.584839 11.7005005c9.584839 12.764191 19.169678 27.655746 28.754517 44.674652c-8.306824 26.946625 -18.850159 47.865692 -31.629944 62.757263l10.543335 17.01889c12.779785 -14.891541 23.962036 -36.16519 33.546875 -63.820908c7.0288696 12.055069 14.377258 25.173813 22.045105 39.356247l9.584839 -17.01892c-7.0288696 -13.473328 -15.335693 -27.655746 -24.920532 -42.547287c5.1118774 -24.110138 8.626343 -46.092896 10.543274 -65.9483c6.3898926 -2.8364868 6.3898926 -5.318405 0 -7.4457703l-15.335693 -2.127365zm-139.93854 -35.101517l0 216.99117l19.169678 0l0 -196.7812l160.06665 0l0 171.25282c0 2.1273804 -0.9584961 3.19104 -2.8754272 3.19104l-20.128174 0l3.8339233 20.20996l23.962097 0c9.584839 0 14.377258 -5.672943 14.377258 -17.01889l0 -197.8449z" fill-rule="evenodd"></path><path stroke="#33b9f3" stroke-width="1.0" stroke-linejoin="round" stroke-linecap="butt" d="m268.48114 141.12195l0 56.375153l-46.965668 0l0 -56.375153zm-63.259872 -17.018913l0 102.11349l16.294205 0l0 -11.7005005l46.965668 0l0 8.50946l16.29422 0l0 -98.92245zm-85.305 -21.273643c-6.389885 19.8554 -16.294212 37.583435 -29.712975 53.184113l13.418762 11.7005005c7.0288773 -7.091217 12.779778 -14.536987 17.2527 -22.337326l17.252686 0l-1.9169617 23.401016l-50.7996 0l0 17.018906l48.882637 0c-3.1949463 17.728043 -20.44764 31.555908 -51.758087 41.483612l6.709381 20.20996c26.19854 -7.8003387 44.729202 -20.919083 55.59201 -39.356247c16.613708 9.218582 30.351974 18.082596 41.214783 26.592056l9.584824 -19.146286c-12.77977 -8.509445 -27.796005 -15.955231 -45.048706 -22.337326l1.9169769 -7.4457703l44.09021 0l0 -17.018906l-43.13173 0l1.9169617 -23.401016l31.629944 0l0 -17.018906l-58.46747 0l6.709381 -15.955238c4.4729156 -0.7091217 5.4313965 -2.481926 2.8754425 -5.318413l-18.211174 -4.25473zm120.76887 152.10655l0 23.401001l-94.88982 0l0 -23.401001zm0 40.41992l0 23.401001l-94.88982 0l0 -23.401001zm-114.05949 -57.438843l0 110.622955l19.16967 0l0 -12.764191l94.88982 0l0 7.4457703l19.169662 0l0 -105.304535z" fill-rule="evenodd"></path><path stroke="#33b9f3" stroke-width="1.0" stroke-linejoin="round" stroke-linecap="butt" d="m453.46838 124.103035l0 26.592064l-32.58844 0l0 -26.592064zm49.841095 0l0 26.592064l-32.58841 0l0 -26.592064zm-146.64789 -17.018913c-4.472931 3.5456085 -10.223816 7.8003387 -17.252716 12.764191c7.0289 7.800331 14.696747 21.273636 23.003601 40.41992c6.3898926 -5.6729736 12.460297 -9.927704 18.211182 -12.764191c-5.111908 -9.927704 -13.099274 -23.401009 -23.962067 -40.41992zm96.80679 60.629883l0 27.655731l-32.58844 0l0 -27.655731zm49.841095 0l0 27.655731l-32.58841 0l0 -27.655731zm-184.98721 18.082596l0 20.20996c9.584839 -0.7091217 18.53067 -1.0636749 26.837524 -1.0636749l7.6678467 0l0 102.11348c0 6.3821106 -2.8754272 12.764191 -8.626343 19.14627c6.3898926 4.25473 12.140808 8.50946 17.252716 12.764191c5.750885 -9.927704 11.1822815 -18.968994 16.29419 -27.123901c5.111908 -8.154877 11.182312 -16.841614 18.211182 -26.060211c-5.111908 -4.25473 -9.584808 -9.927704 -13.418762 -17.01889c-4.4729004 7.0911865 -8.626343 13.82785 -12.460266 20.20996l0 -59.566208c0 -14.182434 0.31948853 -28.364868 0.9584656 -42.547287l-25.879028 0c-8.945831 0 -17.891693 -0.35456848 -26.837524 -1.0636902zm83.38803 -78.71248c0.63897705 13.473312 0.9584656 30.846786 0.9584656 52.120422c0 20.56453 -0.31948853 38.647125 -0.9584656 54.247803l51.758087 0l0 21.273636c-37.06137 0 -59.425964 -0.35456848 -67.09381 -1.0636749l0 19.14627c8.306824 -0.7091217 27.476501 -1.0636749 57.508972 -1.0636749c-6.3898926 13.473297 -14.05777 25.705658 -23.003601 36.69702c-8.945831 10.991394 -22.045105 21.450928 -39.29779 31.378632c5.750885 5.6729736 10.223816 11.7005005 13.418762 18.08258c16.613708 -12.055054 28.914215 -22.86914 36.90158 -32.44229c7.9873657 -9.573151 15.175995 -19.678131 21.565887 -30.314941l0 0c0 36.87433 -0.31951904 63.46637 -0.9584961 79.77615l19.169647 0c-0.63897705 -15.6006775 -0.9584656 -43.25641 -0.9584656 -82.96719l0 0c6.3898926 11.345947 15.016235 22.691895 25.879028 34.03781c10.8628235 11.345947 24.601074 20.919098 41.214783 28.719421c2.5559692 -8.50946 6.0703735 -15.955231 10.543335 -22.33731c-12.779785 -4.963867 -25.240051 -12.409637 -37.38086 -22.337341c-12.140778 -9.927704 -23.32309 -22.691864 -33.546906 -38.29254c33.866394 0 54.953033 0.35455322 63.259857 1.0636749l0 -19.14627c-7.6678467 0.70910645 -30.990936 1.0636749 -69.96924 1.0636749l0 -21.273636l51.758057 0c-0.63897705 -9.927704 -0.95843506 -26.946625 -0.95843506 -51.056747c0 -24.110138 0.319458 -42.547287 0.95843506 -55.311478z" fill-rule="evenodd"></path><path stroke="#33b9f3" stroke-width="1.0" stroke-linejoin="round" stroke-linecap="butt" d="m645.165 159.20454c-1.2779541 17.728043 -3.1949463 35.101517 -5.7509155 52.120438c-7.0288696 -10.636826 -15.016235 -21.628204 -23.962036 -32.97415l-9.584839 10.636826c10.223816 14.891541 20.128113 30.13765 29.712952 45.738327c-7.6678467 21.982758 -18.850159 42.901855 -33.546875 62.757233l10.543274 15.955261c15.335754 -19.146301 26.837524 -39.710815 34.505432 -61.693573c7.0288696 11.345947 14.057739 22.691895 21.086609 34.03781l9.584839 -18.08258c-7.6678467 -12.764191 -15.974731 -25.882935 -24.920593 -39.356247c3.1949463 -21.982758 5.7509155 -41.483597 7.6679077 -58.502518c5.7508545 -2.127365 6.0703735 -4.25473 0.95843506 -6.3820953l-16.29419 -4.25473zm72.84473 -1.0636749c-1.2780151 18.43715 -3.8339233 38.292557 -7.6678467 59.566193c-9.584839 -14.182419 -18.211182 -26.237488 -25.87909 -36.16519l-9.584839 11.7005005c9.584839 12.764191 19.169678 27.655746 28.754517 44.674652c-8.306824 26.946625 -18.850159 47.865692 -31.629944 62.757263l10.543335 17.01889c12.779785 -14.891541 23.962036 -36.16519 33.546875 -63.820908c7.0288696 12.055069 14.377258 25.173813 22.045105 39.356247l9.584839 -17.01892c-7.0288696 -13.473328 -15.335693 -27.655746 -24.920532 -42.547287c5.1118774 -24.110138 8.626343 -46.092896 10.543274 -65.9483c6.3898926 -2.8364868 6.3898926 -5.318405 0 -7.4457703l-15.335693 -2.127365zm-139.93854 -35.101517l0 216.99117l19.169678 0l0 -196.7812l160.06665 0l0 171.25282c0 2.1273804 -0.9584961 3.19104 -2.8754272 3.19104l-20.128174 0l3.8339233 20.20996l23.962097 0c9.584839 0 14.377258 -5.672943 14.377258 -17.01889l0 -197.8449z" fill-rule="evenodd"></path><path fill="#33b9f3" d="m697.42255 66.06562l0 0c0 -5.3112144 4.305603 -9.616802 9.616821 -9.616802l3.553833 0l0 0l19.75586 0l36.480347 0c2.550537 0 4.996582 1.013195 6.80011 2.8166962c1.8034668 1.8034973 2.8166504 4.249569 2.8166504 6.800106l0 24.041992l0 0l0 14.425194l0 0c0 5.3112106 -4.305542 9.616798 -9.61676 9.616798l-36.480347 0l-9.877686 7.2126007l-9.878174 -7.2126007l-3.553833 0c-5.3112183 0 -9.616821 -4.305588 -9.616821 -9.616798l0 0l0 -14.425194l0 0z" fill-rule="nonzero"></path><path stroke="#ffffff" stroke-width="1.0" stroke-linejoin="round" stroke-linecap="butt" d="m697.42255 66.06562l0 0c0 -5.3112144 4.305603 -9.616802 9.616821 -9.616802l3.553833 0l0 0l19.75586 0l36.480347 0c2.550537 0 4.996582 1.013195 6.80011 2.8166962c1.8034668 1.8034973 2.8166504 4.249569 2.8166504 6.800106l0 24.041992l0 0l0 14.425194l0 0c0 5.3112106 -4.305542 9.616798 -9.61676 9.616798l-36.480347 0l-9.877686 7.2126007l-9.878174 -7.2126007l-3.553833 0c-5.3112183 0 -9.616821 -4.305588 -9.616821 -9.616798l0 0l0 -14.425194l0 0z" fill-rule="nonzero"></path><path fill="#ffffff" d="m715.42676 95.90171l-1.875 0l0 -11.34375q-1.5 2.15625 -1.96875 2.625l-1.3125 -1.6875q3.5625 -4.3125 4.6875 -10.78125l1.875 0.65625q0.5625 0.28125 -0.09375 0.46875q-0.46875 2.625 -1.5 4.96875l0.375 0.09375q0.28125 0.28125 -0.1875 0.5625l0 14.4375zm5.8125 -11.0625q0.84375 0.28125 -0.09375 0.65625q-0.84375 4.78125 -2.34375 7.40625l-1.6875 -0.84375q1.59375 -2.71875 2.34375 -7.59375l1.78125 0.375zm-0.09375 -6.46875l8.34375 0l0.28125 -0.5625l2.0625 1.40625l-0.46875 0.46875l-1.6875 4.21875l-1.96875 -0.65625l1.3125 -3.09375l-3.75 0l0 14.15625q0 1.5 -1.3125 1.5l-2.53125 0l-0.5625 -1.96875l2.15625 0q0.375 0 0.375 -0.375l0 -13.3125l-2.90625 0q-1.21875 2.4375 -2.625 4.03125l-1.40625 -1.21875q2.53125 -2.71875 3.75 -7.96875l1.78125 0.1875q0.9375 0.1875 -0.09375 0.65625l-0.75 2.53125zm7.6875 5.90625q2.0625 4.3125 2.90625 7.3125l-2.0625 0.65625q-0.75 -3.09375 -2.53125 -7.40625l1.6875 -0.5625zm12.1875 6.75q-1.6875 2.4375 -4.78125 4.5l-1.3125 -1.6875q3.09375 -1.96875 4.59375 -4.03125q-0.09375 -0.1875 -1.875 -1.3125l-0.375 1.125l-1.78125 -0.75q1.3125 -3.65625 1.96875 -7.59375l-2.34375 0l0 -1.78125l2.625 0q0.375 -2.25 0.65625 -4.5l1.96875 0.28125q0.46875 0.09375 -0.09375 0.5625q-0.28125 1.875 -0.65625 3.65625l2.25 0l0.28125 -0.46875l1.78125 1.125l-0.28125 0.46875q-0.46875 5.71875 -1.6875 8.53125q1.3125 1.03125 2.71875 2.25l-1.21875 1.875q-1.5 -1.5 -2.4375 -2.25zm10.03125 2.8125q0 1.6875 -1.21875 1.6875l-2.34375 0l-0.46875 -2.0625l1.78125 0q0.375 0 0.375 -0.375l0 -6.5625l-4.96875 0l0 -1.78125l4.96875 0l0 -3.9375l0.65625 0.09375l2.15625 -2.8125l-7.125 0l0 -1.78125l8.34375 0l0.375 -0.375l1.59375 1.59375q0.5625 0.46875 -0.375 0.5625l-3.75 3.75l0 2.90625l4.96875 0l0 1.78125l-4.96875 0l0 7.3125zm-12.9375 -6.9375q0.84375 0.375 2.15625 1.21875q1.03125 -2.71875 1.40625 -6.84375l-2.34375 0q-0.9375 4.59375 -1.21875 5.625z" fill-rule="nonzero"></path></g></svg>

